<svg version="1" xmlns="http://www.w3.org/2000/svg" width="341.333" height="341.333" viewBox="0 0 256.000000 256.000000"><path d="M0 128v113h256V15H0v113zm108-88.5v7.2c0 .5-4.5 1.1-10 1.4-7.9.4-10.6 1-12.8 2.6-5.3 3.9-5.6 5.8-6.3 33.3-.4 21-.9 26.2-2.3 29.5-3.3 7.7-7.3 10.5-19.9 14l-7.8 2.1 6.3 1.3c11.8 2.4 19.4 7.9 21.9 15.9.6 2 1.4 13.6 1.8 25.7.7 23.7 1.2 26 6.3 29.8 2.2 1.6 4.9 2.2 12.8 2.6 5.5.3 10 .9 10 1.3V220H97.8c-17.4-.1-28.6-3.8-32.9-10.7-3.8-6.1-4.9-13-5.6-33.8-.6-22.8-1.7-26.9-8.3-32.9-4.9-4.4-9.3-5.6-20.2-5.6H22v-14.8l10.8-.3c13.5-.5 19.3-3 23.2-10 2.4-4.2 2.5-5.3 3.2-29.4.9-33.2 2.7-39.4 12.6-44.8 6-3.3 12.6-4.4 26-4.6L108 33v6.5zm74.1-3.6c3 1.1 6.9 3.6 8.6 5.3 6.1 6.4 6.5 8.7 7.3 37.4l.6 26.2 3 5.8c4.2 8.5 9 10.8 23.6 11.3l10.8.3V137h-8.7c-11 0-15.4 1.2-20.3 5.6-7.1 6.4-8.2 10.9-9 35.4-.8 24.6-1.8 28.8-8 34.4-5.4 4.9-12.2 6.7-27.2 7.3l-12.8.6v-15.1l10-.4c8.1-.3 10.5-.8 12.7-2.4 5.2-3.8 5.7-6.2 6.4-29.9.4-12.5 1.2-23.7 1.9-26 1.8-6 8.3-11.7 16.3-14.3 3.7-1.2 8-2.2 9.5-2.3 1.6 0-.6-1-5.3-2.3-12.8-3.6-16.8-6.4-20.2-14.1-1.4-3.3-1.8-8.3-2.3-29.5-.6-27.6-.9-29.4-6.3-33.4-2.2-1.6-4.6-2.1-12.7-2.4l-10-.4V32.7l13.3.5c10 .5 14.5 1.1 18.8 2.7z"/></svg>